<svg xmlns="http://www.w3.org/2000/svg" width="1600" height="1200" viewBox="0 0 1600 1200" font-family="Helvetica,Arial,sans-serif" font-size="12">
<defs>
<marker id="a" markerWidth="9" markerHeight="9" refX="8" refY="4.5" orient="auto"><path d="M0,0 L9,4.5 L0,9 z" fill="#444"/></marker>
<marker id="r" markerWidth="9" markerHeight="9" refX="8" refY="4.5" orient="auto"><path d="M0,0 L9,4.5 L0,9 z" fill="#c0392b"/></marker>
<style>
.t{font-weight:700;font-size:20px;fill:#111}
.s{font-size:11.5px;fill:#333}
.m{font-family:Menlo,Consolas,monospace;font-size:10.5px;fill:#222}
.lbl{font-size:14px;fill:#555;font-style:italic}
.sec{font-weight:700;font-size:22px;fill:#222}
.h1{font-weight:700;font-size:24px;fill:#111}
.h2{font-size:12.5px;fill:#555;font-style:italic}
path.f{stroke:#444;stroke-width:1.5;fill:none;marker-end:url(#a)}
path.no{stroke:#c0392b;stroke-width:1.5;fill:none;marker-end:url(#r);stroke-dasharray:6 3}
</style></defs>
<rect width="1600" height="1200" fill="#fff"/>
<text x="28" y="50" class="h1">Sunroof · event → which camera → is the frame real → what the frontend gets</text>
<text x="28" y="72" class="h2">One call of resolve_footage(event, k=3, deadline 30 s). Solid arrows = success path, red dashed = status back to the weather backend.</text>
<g transform="translate(0.0,88) scale(1.0000) translate(0,-88)">
<rect x="28" y="88" width="1544" height="134.0" rx="10" fill="#f7f7f7" stroke="#888" stroke-width="1.2"/>
<text x="42.0" y="118.0" class="sec" >Inputs</text>
<rect x="42.0" y="146.0" width="493.3" height="62.0" rx="8" style="fill:#f4f4f4;stroke:#888;stroke-dasharray:5 3;stroke-width:1.4"/>
<text x="54.0" y="184.0" class="t" >Event (weather backend)</text>
<rect x="553.3" y="146.0" width="493.3" height="62.0" rx="8" style="fill:#f0fff0;stroke:#389e0d;stroke-width:1.4"/>
<text x="565.3" y="184.0" class="t" >Mini-DB</text>
<rect x="1064.7" y="146.0" width="493.3" height="62.0" rx="8" style="fill:#fdf0ff;stroke:#9254de;stroke-width:1.4"/>
<text x="1076.7" y="184.0" class="t" >EventProfile (per type)</text>
<rect x="28" y="266.8" width="1544" height="134.0" rx="10" fill="#fbf5ff" stroke="#9254de" stroke-width="1.2"/>
<text x="42.0" y="296.8" class="sec" >① find_cameras() → candidates</text>
<path class="f" d="M800.0,224.0 L800.0,264.8"/>
<rect x="42.0" y="324.8" width="227.7" height="62.0" rx="8" style="fill:#fff;stroke:#333;stroke-width:1.4"/>
<text x="54.0" y="362.8" class="t" >bbox → haversine</text>
<path class="f" d="M271.7,355.8 L297.7,355.8"/>
<rect x="299.7" y="324.8" width="227.7" height="62.0" rx="8" style="fill:#fff;stroke:#333;stroke-width:1.4"/>
<text x="311.7" y="362.8" class="t" >geometry test</text>
<path class="f" d="M529.3,355.8 L555.3,355.8"/>
<rect x="557.3" y="324.8" width="227.7" height="62.0" rx="8" style="fill:#fff;stroke:#333;stroke-width:1.4"/>
<text x="569.3" y="362.8" class="t" >hard filters</text>
<path class="f" d="M787.0,355.8 L813.0,355.8"/>
<rect x="815.0" y="324.8" width="227.7" height="62.0" rx="8" style="fill:#fff;stroke:#333;stroke-width:1.4"/>
<text x="827.0" y="362.8" class="t" >night gate (astral)</text>
<path class="f" d="M1044.7,355.8 L1070.7,355.8"/>
<rect x="1072.7" y="324.8" width="227.7" height="62.0" rx="8" style="fill:#fff;stroke:#333;stroke-width:1.4"/>
<text x="1084.7" y="362.8" class="t" >score &amp; rank</text>
<path class="no" d="M1302.3,355.8 L1328.3,355.8"/>
<rect x="1330.3" y="324.8" width="227.7" height="62.0" rx="8" style="fill:#fff1f0;stroke:#c0392b;stroke-width:1.4"/>
<text x="1342.3" y="362.8" class="t" >no cameras</text>
<rect x="28" y="445.6" width="1544" height="134.0" rx="10" fill="#fffbf2" stroke="#d48806" stroke-width="1.2"/>
<text x="42.0" y="475.6" class="sec" >② fetch frames + cheap gates</text>
<path class="f" d="M800.0,402.8 L800.0,443.6"/>
<text x="806.0" y="419.2" class="lbl" >≤ 9 candidates</text>
<rect x="42.0" y="503.6" width="227.7" height="62.0" rx="8" style="fill:#fff7e6;stroke:#d48806;stroke-width:1.4"/>
<text x="54.0" y="541.6" class="t" >get a frame</text>
<path class="f" d="M271.7,534.6 L297.7,534.6"/>
<rect x="299.7" y="503.6" width="227.7" height="62.0" rx="8" style="fill:#fff7e6;stroke:#d48806;stroke-width:1.4"/>
<text x="311.7" y="541.6" class="t" >bytes</text>
<path class="f" d="M529.3,534.6 L555.3,534.6"/>
<rect x="557.3" y="503.6" width="227.7" height="62.0" rx="8" style="fill:#fff7e6;stroke:#d48806;stroke-width:1.4"/>
<text x="569.3" y="541.6" class="t" >timestamp</text>
<path class="f" d="M787.0,534.6 L813.0,534.6"/>
<rect x="815.0" y="503.6" width="227.7" height="62.0" rx="8" style="fill:#fff7e6;stroke:#d48806;stroke-width:1.4"/>
<text x="827.0" y="541.6" class="t" >pixels</text>
<path class="f" d="M1044.7,534.6 L1070.7,534.6"/>
<rect x="1072.7" y="503.6" width="227.7" height="62.0" rx="8" style="fill:#fff7e6;stroke:#d48806;stroke-width:1.4"/>
<text x="1084.7" y="541.6" class="t" >re-rank</text>
<path class="no" d="M1302.3,534.6 L1328.3,534.6"/>
<rect x="1330.3" y="503.6" width="227.7" height="62.0" rx="8" style="fill:#fff1f0;stroke:#c0392b;stroke-width:1.4"/>
<text x="1342.3" y="541.6" class="t" >all frames failed</text>
<rect x="28" y="624.4" width="1544" height="134.0" rx="10" fill="#f2faff" stroke="#1890ff" stroke-width="1.2"/>
<text x="42.0" y="654.4" class="sec" >③ VLM gate</text>
<path class="f" d="M800.0,581.6 L800.0,622.4"/>
<text x="806.0" y="598.0" class="lbl" >≤ 6 frames (lightning: max-projection composite)</text>
<rect x="42.0" y="682.4" width="356.5" height="62.0" rx="8" style="fill:#e6f7ff;stroke:#1890ff;stroke-width:1.4"/>
<text x="54.0" y="720.4" class="t" >prompt</text>
<path class="f" d="M400.5,713.4 L426.5,713.4"/>
<rect x="428.5" y="682.4" width="356.5" height="62.0" rx="8" style="fill:#e6f7ff;stroke:#1890ff;stroke-width:1.4"/>
<text x="440.5" y="720.4" class="t" >Verdict</text>
<path class="f" d="M787.0,713.4 L813.0,713.4"/>
<rect x="815.0" y="682.4" width="356.5" height="62.0" rx="8" style="fill:#e6f7ff;stroke:#1890ff;stroke-width:1.4"/>
<text x="827.0" y="720.4" class="t" >pass / pick order</text>
<path class="no" d="M1173.5,713.4 L1199.5,713.4"/>
<rect x="1201.5" y="682.4" width="356.5" height="62.0" rx="8" style="fill:#fff1f0;stroke:#c0392b;stroke-width:1.4"/>
<text x="1213.5" y="720.4" class="t" >VLM says no</text>
<rect x="28" y="803.1999999999999" width="1544" height="134.0" rx="10" fill="#f2fffd" stroke="#13c2c2" stroke-width="1.2"/>
<text x="42.0" y="833.2" class="sec" >④ route to the frontend</text>
<path class="f" d="M800.0,760.4 L800.0,801.2"/>
<text x="806.0" y="776.8" class="lbl" >k verified (camera, frame, verdict)</text>
<rect x="42.0" y="861.2" width="356.5" height="62.0" rx="8" style="fill:#e6fffb;stroke:#13c2c2;stroke-width:1.4"/>
<text x="54.0" y="899.2" class="t" >Footage envelope</text>
<path class="f" d="M400.5,892.2 L426.5,892.2"/>
<rect x="428.5" y="861.2" width="356.5" height="62.0" rx="8" style="fill:#e6fffb;stroke:#13c2c2;stroke-width:1.4"/>
<text x="440.5" y="899.2" class="t" >proxy</text>
<path class="f" d="M787.0,892.2 L813.0,892.2"/>
<rect x="815.0" y="861.2" width="356.5" height="62.0" rx="8" style="fill:#e6fffb;stroke:#13c2c2;stroke-width:1.4"/>
<text x="827.0" y="899.2" class="t" >store + push</text>
<path class="f" d="M1173.5,892.2 L1199.5,892.2"/>
<rect x="1201.5" y="861.2" width="356.5" height="62.0" rx="8" style="fill:#f4f4f4;stroke:#888;stroke-dasharray:5 3;stroke-width:1.4"/>
<text x="1213.5" y="899.2" class="t" >Frontend</text>
<rect x="28" y="981.9999999999999" width="1544" height="134.0" rx="10" fill="#f7f7f7" stroke="#888" stroke-width="1.2"/>
<text x="42.0" y="1012.0" class="sec" >FootageResult → weather backend</text>
<path class="f" d="M800.0,939.2 L800.0,980.0"/>
<text x="806.0" y="955.6" class="lbl" >FOOTAGE_FOUND + counters</text>
<rect x="42.0" y="1040.0" width="1516.0" height="62.0" rx="8" style="fill:#f4f4f4;stroke:#888;stroke-dasharray:5 3;stroke-width:1.4"/>
<text x="54.0" y="1078.0" class="t" >FootageResult</text>
</g>
</svg>
